<?xml version="1.0" encoding="utf-8"?>
<!-- Generator: Adobe Illustrator 19.2.1, SVG Export Plug-In . SVG Version: 6.00 Build 0)  -->
<svg version="1.1" id="Layer_1" xmlns="http://www.w3.org/2000/svg" xmlns:xlink="http://www.w3.org/1999/xlink" x="0px" y="0px"
	 viewBox="0 0 612 792" style="enable-background:new 0 0 612 792;" xml:space="preserve">
<style type="text/css">
	.st0{fill:none;stroke:#010101;stroke-width:5;stroke-miterlimit:10;}
	.st1{fill:none;stroke:#010101;stroke-width:4;stroke-miterlimit:10;}
</style>
<g id="fondamenta">
	<line class="st0" x1="274" y1="241.3" x2="338" y2="240.8"/>
	<line class="st0" x1="274" y1="277.8" x2="338" y2="277.8"/>
	<line class="st0" x1="338" y1="240.8" x2="338" y2="277.8"/>
	<line class="st0" x1="304.5" y1="255" x2="304.5" y2="240.7"/>
	<line class="st0" x1="304.5" y1="273.3" x2="304.5" y2="277.8"/>
	<line class="st0" x1="338" y1="302.3" x2="338" y2="406.3"/>
	<line class="st0" x1="274" y1="406.3" x2="338" y2="406.3"/>
	<line class="st0" x1="274" y1="370.8" x2="274" y2="406.3"/>
	<line class="st0" x1="188.2" y1="370.6" x2="274" y2="370.8"/>
	<line class="st0" x1="188.2" y1="540.8" x2="188.2" y2="370.6"/>
	<line class="st0" x1="424.5" y1="370.6" x2="338" y2="370.8"/>
	<line class="st0" x1="424.5" y1="406.3" x2="424.5" y2="370.8"/>
	<line class="st0" x1="301" y1="370.8" x2="314.5" y2="370.8"/>
	<line class="st0" x1="314.5" y1="354.3" x2="314.5" y2="370.8"/>
	<line class="st0" x1="307.8" y1="465.3" x2="307.8" y2="500.8"/>
	<line class="st0" x1="424.5" y1="465.3" x2="424.5" y2="500.8"/>
	<line class="st0" x1="314.5" y1="552.8" x2="370" y2="497.3"/>
	<line class="st1" x1="188.2" y1="540.8" x2="236.1" y2="491.8"/>
</g>
</svg>
