<?xml version="1.0" encoding="utf-8"?>
<!-- Generator: Adobe Illustrator 19.2.1, SVG Export Plug-In . SVG Version: 6.00 Build 0)  -->
<svg version="1.1" id="Layer_2" xmlns="http://www.w3.org/2000/svg" xmlns:xlink="http://www.w3.org/1999/xlink" x="0px" y="0px"
	 viewBox="0 0 612 792" style="enable-background:new 0 0 612 792;" xml:space="preserve">
<style type="text/css">
	.st0{fill:none;stroke:#221F1F;stroke-width:5;stroke-miterlimit:10;}
</style>
<g id="soffittoFondamenta">
	<line class="st0" x1="238" y1="240.8" x2="238" y2="377.3"/>
	<line class="st0" x1="181.9" y1="377.3" x2="238" y2="377.3"/>
	<line class="st0" x1="373.3" y1="240.4" x2="238" y2="240.8"/>
	<line class="st0" x1="423.3" y1="377.3" x2="373.3" y2="377.3"/>
	<line class="st0" x1="373.3" y1="240.4" x2="373.3" y2="377.3"/>
	<line class="st0" x1="423.3" y1="501.8" x2="423.3" y2="377.3"/>
	<line class="st0" x1="367.9" y1="501.4" x2="423.3" y2="501.8"/>
	<line class="st0" x1="307.7" y1="561" x2="367.9" y2="501.4"/>
	<line class="st0" x1="307.9" y1="491.2" x2="307.7" y2="561"/>
	<line class="st0" x1="227.5" y1="491.4" x2="307.8" y2="491.2"/>
	<line class="st0" x1="183" y1="377.3" x2="182.9" y2="536.3"/>
	<line class="st0" x1="182.9" y1="536.3" x2="227.5" y2="491.4"/>
</g>
<line class="st0" x1="277" y1="281" x2="338" y2="281"/>
<line class="st0" x1="339" y1="370.4" x2="338" y2="281"/>
<line class="st0" x1="277" y1="370.4" x2="339" y2="370.4"/>
<line class="st0" x1="277" y1="281" x2="277" y2="370.4"/>
</svg>
