<?xml version="1.0" encoding="utf-8"?>
<!-- Generator: Adobe Illustrator 19.2.1, SVG Export Plug-In . SVG Version: 6.00 Build 0)  -->
<svg version="1.1" id="Layer_1" xmlns="http://www.w3.org/2000/svg" xmlns:xlink="http://www.w3.org/1999/xlink" x="0px" y="0px"
	 viewBox="0 0 612 792" style="enable-background:new 0 0 612 792;" xml:space="preserve">
<style type="text/css">
	.st0{display:none;}
	.st1{fill:none;stroke:#221F1F;stroke-width:5;stroke-miterlimit:10;}
</style>
<g id="Layer_2" class="st0">
	
		<image style="display:inline;overflow:visible;enable-background:new    ;" width="408" height="343" xlink:href="57CD92781B16B464.png"  transform="matrix(1 0 0 1 116 189)">
	</image>
</g>
<g id="soffittoFondamenta">
	<line class="st1" x1="220" y1="218.8" x2="220" y2="355.3"/>
	<line class="st1" x1="163.9" y1="355.3" x2="220" y2="355.3"/>
	<line class="st1" x1="355.3" y1="218.4" x2="220" y2="218.8"/>
	<line class="st1" x1="405.3" y1="355.3" x2="355.3" y2="355.3"/>
	<line class="st1" x1="355.3" y1="218.4" x2="355.3" y2="355.3"/>
	<line class="st1" x1="405.3" y1="479.8" x2="405.3" y2="355.3"/>
	<line class="st1" x1="349.9" y1="479.4" x2="405.3" y2="479.8"/>
	<line class="st1" x1="289.7" y1="539" x2="349.9" y2="479.4"/>
	<line class="st1" x1="289.9" y1="469.2" x2="289.7" y2="539"/>
	<line class="st1" x1="209.5" y1="469.4" x2="289.8" y2="469.2"/>
	<line class="st1" x1="165" y1="355.3" x2="164.9" y2="514.3"/>
	<line class="st1" x1="164.9" y1="514.3" x2="209.5" y2="469.4"/>
</g>
<line class="st1" x1="259" y1="259" x2="320" y2="259"/>
<line class="st1" x1="321" y1="348.4" x2="320" y2="259"/>
<line class="st1" x1="259" y1="348.4" x2="321" y2="348.4"/>
<line class="st1" x1="259" y1="259" x2="259" y2="348.4"/>
</svg>
