<?xml version="1.0" encoding="utf-8"?>
<!-- Generator: Adobe Illustrator 19.2.1, SVG Export Plug-In . SVG Version: 6.00 Build 0)  -->
<svg version="1.1" id="Layer_1" xmlns="http://www.w3.org/2000/svg" xmlns:xlink="http://www.w3.org/1999/xlink" x="0px" y="0px"
	 viewBox="0 0 612 792" style="enable-background:new 0 0 612 792;" xml:space="preserve">
<style type="text/css">
	.st0{fill:none;stroke:#010101;stroke-width:5;stroke-miterlimit:10;}
</style>
<g id="primopiano">
	<line class="st0" x1="273" y1="241.3" x2="337" y2="240.8"/>
	<line class="st0" x1="337" y1="277.8" x2="337" y2="240.8"/>
	<line class="st0" x1="273" y1="277.8" x2="337" y2="277.8"/>
	<line class="st0" x1="303.5" y1="240.7" x2="303.5" y2="277.8"/>
	<line class="st0" x1="273" y1="406.3" x2="337" y2="406.3"/>
	<line class="st0" x1="306.8" y1="500.8" x2="306.8" y2="406.3"/>
	<line class="st0" x1="423.5" y1="500.8" x2="423.5" y2="370.8"/>
	<line class="st0" x1="405.3" y1="406.3" x2="423.5" y2="406.3"/>
	<line class="st0" x1="405.3" y1="370.8" x2="423.5" y2="370.8"/>
	<line class="st0" x1="187" y1="484.8" x2="187" y2="370.8"/>
	<line class="st0" x1="208.5" y1="370.8" x2="187" y2="370.8"/>
	<line class="st0" x1="208.5" y1="406.3" x2="187" y2="406.3"/>
	<line class="st0" x1="187" y1="534.8" x2="230" y2="491.8"/>
	<line class="st0" x1="313.5" y1="552.8" x2="369" y2="497.3"/>
	<line class="st0" x1="273" y1="388.6" x2="273" y2="354.3"/>
	<line class="st0" x1="337" y1="388.6" x2="337" y2="370.8"/>
	<line class="st0" x1="208.5" y1="370.8" x2="273" y2="370.8"/>
	<line class="st0" x1="337" y1="370.8" x2="405.3" y2="370.8"/>
</g>
</svg>
