<?xml version="1.0" encoding="utf-8"?>
<!-- Generator: Adobe Illustrator 19.2.1, SVG Export Plug-In . SVG Version: 6.00 Build 0)  -->
<svg version="1.1" id="Layer_1" xmlns="http://www.w3.org/2000/svg" xmlns:xlink="http://www.w3.org/1999/xlink" x="0px" y="0px"
	 viewBox="0 0 612 792" style="enable-background:new 0 0 612 792;" xml:space="preserve">
<style type="text/css">
	.st0{fill:none;stroke:#231F20;stroke-width:5;stroke-miterlimit:10;}
</style>
<line class="st0" x1="273" y1="240.3" x2="337" y2="239.8"/>
<line class="st0" x1="337" y1="276.8" x2="337" y2="239.8"/>
<line class="st0" x1="273" y1="276.8" x2="337" y2="276.8"/>
<line class="st0" x1="303.5" y1="254" x2="303.5" y2="239.7"/>
<line class="st0" x1="303.5" y1="272.3" x2="303.5" y2="276.8"/>
<line class="st0" x1="273" y1="405.3" x2="273" y2="276.8"/>
<line class="st0" x1="337" y1="353.3" x2="337" y2="405.3"/>
<line class="st0" x1="423.5" y1="369.8" x2="423.5" y2="405.3"/>
<line class="st0" x1="187" y1="369.8" x2="187" y2="405.3"/>
<line class="st0" x1="208.5" y1="369.8" x2="187" y2="369.8"/>
<line class="st0" x1="208.5" y1="405.3" x2="187" y2="405.3"/>
<line class="st0" x1="405.3" y1="369.8" x2="423.5" y2="369.8"/>
<line class="st0" x1="405.3" y1="405.3" x2="423.5" y2="405.3"/>
<line class="st0" x1="187" y1="444.8" x2="187" y2="483.8"/>
<line class="st0" x1="306.8" y1="464.3" x2="306.8" y2="499.8"/>
<line class="st0" x1="423.5" y1="464.3" x2="423.5" y2="499.8"/>
<line class="st0" x1="313.5" y1="551.8" x2="369" y2="496.3"/>
<line class="st0" x1="187" y1="533.8" x2="230" y2="490.8"/>
<line class="st0" x1="241.3" y1="369.8" x2="208.5" y2="369.8"/>
<line class="st0" x1="371.3" y1="369.8" x2="405.3" y2="369.8"/>
</svg>
