<?xml version="1.0" encoding="utf-8"?>
<!-- Generator: Adobe Illustrator 19.2.1, SVG Export Plug-In . SVG Version: 6.00 Build 0)  -->
<svg version="1.1" id="Layer_1" xmlns="http://www.w3.org/2000/svg" xmlns:xlink="http://www.w3.org/1999/xlink" x="0px" y="0px"
	 viewBox="0 0 612 792" style="enable-background:new 0 0 612 792;" xml:space="preserve">
<style type="text/css">
	.st0{fill:none;}
	.st1{fill:none;stroke:#010101;stroke-width:5;stroke-miterlimit:10;}
</style>
<g id="pianoterra">
	<line class="st0" x1="216" y1="358.8" x2="216" y2="394.3"/>
	<line class="st1" x1="230.3" y1="394.3" x2="216" y2="394.3"/>
	<line class="st1" x1="230.3" y1="358.8" x2="216" y2="358.8"/>
	<line class="st1" x1="302" y1="265.8" x2="302" y2="394.3"/>
	<line class="st1" x1="366" y1="358.8" x2="366" y2="394.3"/>
	<line class="st1" x1="452.5" y1="358.8" x2="431.7" y2="358.8"/>
	<line class="st1" x1="452.5" y1="394.3" x2="431.7" y2="394.3"/>
	<line class="st1" x1="452.5" y1="358.8" x2="452.5" y2="394.3"/>
	<line class="st1" x1="452.5" y1="453.3" x2="452.5" y2="488.8"/>
	<line class="st1" x1="335.8" y1="453.3" x2="335.8" y2="488.8"/>
	<line class="st1" x1="216" y1="433.8" x2="216" y2="472.8"/>
	<line class="st1" x1="216" y1="522.8" x2="259" y2="479.8"/>
	<line class="st1" x1="342.5" y1="540.8" x2="398" y2="485.3"/>
	<line class="st1" x1="302" y1="229.3" x2="366" y2="228.8"/>
	<line class="st1" x1="366" y1="265.8" x2="366" y2="228.8"/>
	<line class="st1" x1="302" y1="265.8" x2="366" y2="265.8"/>
	<line class="st1" x1="332.5" y1="243" x2="332.5" y2="228.7"/>
	<line class="st1" x1="332.5" y1="261.3" x2="332.5" y2="265.8"/>
	<line class="st1" x1="216" y1="394.3" x2="216" y2="358.8"/>
</g>
</svg>
