<?xml version="1.0" encoding="utf-8"?>
<!-- Generator: Adobe Illustrator 19.2.1, SVG Export Plug-In . SVG Version: 6.00 Build 0)  -->
<svg version="1.1" id="Layer_1" xmlns="http://www.w3.org/2000/svg" xmlns:xlink="http://www.w3.org/1999/xlink" x="0px" y="0px"
	 viewBox="0 0 612 792" style="enable-background:new 0 0 612 792;" xml:space="preserve">
<style type="text/css">
	.st0{fill:none;stroke:#010101;stroke-miterlimit:10;}
</style>
<line class="st0" x1="250.3" y1="351.7" x2="250" y2="415.7"/>
<line class="st0" x1="262.7" y1="351.7" x2="250.3" y2="351.7"/>
<line class="st0" x1="262.7" y1="375.3" x2="262.7" y2="351.7"/>
<line class="st0" x1="271.7" y1="375.3" x2="250.3" y2="375.3"/>
<line class="st0" x1="262.7" y1="355.5" x2="250.3" y2="355.5"/>
<line class="st0" x1="262.7" y1="371.6" x2="250.3" y2="371.6"/>
<line class="st0" x1="283.7" y1="351.7" x2="283.7" y2="363.5"/>
<line class="st0" x1="329.2" y1="351.7" x2="329.2" y2="363.5"/>
<line class="st0" x1="284" y1="363.5" x2="329" y2="363.5"/>
<line class="st0" x1="283.3" y1="351.7" x2="329.3" y2="351.7"/>
<line class="st0" x1="293.5" y1="351.7" x2="293.5" y2="363.5"/>
<line class="st0" x1="299.5" y1="351.7" x2="299.5" y2="363.5"/>
<line class="st0" x1="306.3" y1="351.7" x2="306.3" y2="363.5"/>
<line class="st0" x1="313.2" y1="351.7" x2="313.2" y2="363.5"/>
<line class="st0" x1="319.5" y1="351.7" x2="319.5" y2="363.5"/>
<line class="st0" x1="347" y1="368.3" x2="347" y2="351.7"/>
<line class="st0" x1="340.7" y1="351.7" x2="346.7" y2="351.7"/>
<line class="st0" x1="340.7" y1="375.3" x2="340.7" y2="351.7"/>
<line class="st0" x1="360.3" y1="375.3" x2="340.7" y2="375.3"/>
<line class="st0" x1="329" y1="375.3" x2="283.7" y2="375.3"/>
<line class="st0" x1="283.5" y1="389.7" x2="283.5" y2="375.3"/>
<line class="st0" x1="353.3" y1="351.7" x2="353.3" y2="375.3"/>
<line class="st0" x1="360.3" y1="351.7" x2="353.3" y2="351.7"/>
<line class="st0" x1="360.3" y1="375.3" x2="360.3" y2="351.7"/>
<line class="st0" x1="353.3" y1="360" x2="360.3" y2="360"/>
<line class="st0" x1="353.3" y1="369.3" x2="360.3" y2="369.3"/>
<line class="st0" x1="340.7" y1="375.3" x2="358.7" y2="375.3"/>
<line class="st0" x1="283.7" y1="402.7" x2="283.7" y2="415.7"/>
<line class="st0" x1="261" y1="415.7" x2="349.7" y2="415.7"/>
<line class="st0" x1="354.7" y1="415.7" x2="360.3" y2="415.7"/>
<line class="st0" x1="360.3" y1="375.3" x2="360.3" y2="415.7"/>
<line class="st0" x1="354.7" y1="427.3" x2="354.7" y2="415.7"/>
<line class="st0" x1="279.7" y1="427.3" x2="279.7" y2="415.7"/>
<line class="st0" x1="303" y1="427.3" x2="279.7" y2="427.3"/>
<line class="st0" x1="303" y1="415.7" x2="303" y2="427.3"/>
<line class="st0" x1="308.2" y1="427.3" x2="308.2" y2="415.7"/>
<line class="st0" x1="329" y1="427.3" x2="329" y2="415.7"/>
<line class="st0" x1="308.3" y1="427.3" x2="329" y2="427.3"/>
<line class="st0" x1="331.7" y1="415.7" x2="331.7" y2="427.3"/>
<line class="st0" x1="354.7" y1="427.3" x2="332" y2="427.3"/>
<line class="st0" x1="250.1" y1="415.7" x2="256.5" y2="415.7"/>
</svg>
