<?xml version="1.0" encoding="utf-8"?>
<!-- Generator: Adobe Illustrator 19.2.1, SVG Export Plug-In . SVG Version: 6.00 Build 0)  -->
<svg version="1.1" id="Layer_1" xmlns="http://www.w3.org/2000/svg" xmlns:xlink="http://www.w3.org/1999/xlink" x="0px" y="0px"
	 viewBox="0 0 612 792" style="enable-background:new 0 0 612 792;" xml:space="preserve">
<style type="text/css">
	.st0{fill:none;stroke:#010101;stroke-width:2;stroke-miterlimit:10;}
</style>
<line class="st0" x1="262" y1="423.5" x2="353.5" y2="423.5"/>
<line class="st0" x1="353.5" y1="408" x2="353.5" y2="423.5"/>
<line class="st0" x1="338.5" y1="408" x2="338.5" y2="423.5"/>
<line class="st0" x1="307.7" y1="408" x2="307.7" y2="412"/>
<line class="st0" x1="307.7" y1="418.5" x2="307.7" y2="423.5"/>
<line class="st0" x1="277" y1="408" x2="277" y2="412"/>
<line class="st0" x1="277" y1="418.5" x2="277" y2="426.5"/>
<line class="st0" x1="262" y1="418.5" x2="262" y2="426.5"/>
<line class="st0" x1="250.7" y1="403" x2="250.7" y2="421"/>
<line class="st0" x1="262" y1="421" x2="246.5" y2="421"/>
<line class="st0" x1="366" y1="421" x2="366" y2="402"/>
<line class="st0" x1="358" y1="408" x2="277" y2="408"/>
<line class="st0" x1="269" y1="408" x2="250.7" y2="408"/>
<line class="st0" x1="366" y1="394.5" x2="366" y2="389"/>
<line class="st0" x1="366" y1="381.5" x2="366" y2="353"/>
<line class="st0" x1="250.7" y1="394.5" x2="250.7" y2="389"/>
<line class="st0" x1="250.7" y1="381.5" x2="250.7" y2="353"/>
<line class="st0" x1="307.7" y1="372.5" x2="307.7" y2="353"/>
<line class="st0" x1="283.5" y1="372.5" x2="283.5" y2="353"/>
<line class="st0" x1="283.5" y1="372.5" x2="307.7" y2="372.5"/>
<line class="st0" x1="290.5" y1="346" x2="283.5" y2="353"/>
<line class="st0" x1="315" y1="346.5" x2="307.7" y2="353"/>
<line class="st0" x1="271.5" y1="345.5" x2="266" y2="353"/>
<line class="st0" x1="244" y1="345.5" x2="250.7" y2="353"/>
<line class="st0" x1="373.5" y1="345.5" x2="366" y2="353"/>
<line class="st0" x1="358" y1="346" x2="373.5" y2="346"/>
<line class="st0" x1="262" y1="346" x2="254.2" y2="346"/>
<line class="st0" x1="283.5" y1="346" x2="290.5" y2="346"/>
<line class="st0" x1="323.5" y1="346" x2="332.5" y2="346"/>
<line class="st0" x1="338.5" y1="346" x2="350.5" y2="346"/>
<line class="st0" x1="344.5" y1="353" x2="350.5" y2="346"/>
<line class="st0" x1="327.5" y1="352.7" x2="332.5" y2="346"/>
</svg>
