<?xml version="1.0" encoding="utf-8"?>
<!-- Generator: Adobe Illustrator 19.2.1, SVG Export Plug-In . SVG Version: 6.00 Build 0)  -->
<svg version="1.1" id="Layer_1" xmlns="http://www.w3.org/2000/svg" xmlns:xlink="http://www.w3.org/1999/xlink" x="0px" y="0px"
	 viewBox="0 0 612 792" style="enable-background:new 0 0 612 792;" xml:space="preserve">
<style type="text/css">
	.st0{fill:none;stroke:#010101;stroke-width:2;stroke-miterlimit:10;}
</style>
<line class="st0" x1="361.6" y1="436.5" x2="361.6" y2="363"/>
<line class="st0" x1="246.4" y1="436.5" x2="246.4" y2="363"/>
<line class="st0" x1="303.4" y1="382.5" x2="279.1" y2="382.5"/>
<line class="st0" x1="303.4" y1="382.5" x2="303.4" y2="363"/>
<line class="st0" x1="279.1" y1="382.5" x2="279.1" y2="363"/>
<line class="st0" x1="286.1" y1="355.8" x2="279.1" y2="363"/>
<line class="st0" x1="239.6" y1="355.8" x2="286.1" y2="355.8"/>
<line class="st0" x1="246.4" y1="363" x2="239.6" y2="355.8"/>
<line class="st0" x1="369.1" y1="356" x2="310.6" y2="356"/>
<line class="st0" x1="369.1" y1="356" x2="361.6" y2="363"/>
<line class="st0" x1="303.4" y1="363" x2="310.6" y2="356"/>
<line class="st0" x1="361.6" y1="436.5" x2="246.4" y2="436.5"/>
<line class="st0" x1="273.1" y1="418" x2="273.1" y2="433"/>
<line class="st0" x1="303.4" y1="418" x2="303.4" y2="433"/>
<line class="st0" x1="273.1" y1="418" x2="273.1" y2="433"/>
<line class="st0" x1="303.4" y1="418" x2="273.1" y2="418"/>
<line class="st0" x1="303.4" y1="433" x2="273.1" y2="433"/>
</svg>
