<?xml version="1.0" encoding="utf-8"?>
<!-- Generator: Adobe Illustrator 19.2.1, SVG Export Plug-In . SVG Version: 6.00 Build 0)  -->
<svg version="1.1" id="Layer_1" xmlns="http://www.w3.org/2000/svg" xmlns:xlink="http://www.w3.org/1999/xlink" x="0px" y="0px"
	 viewBox="0 0 612 792" style="enable-background:new 0 0 612 792;" xml:space="preserve">
<style type="text/css">
	.st0{fill:none;stroke:#010101;stroke-width:2;stroke-miterlimit:10;}
</style>
<line class="st0" x1="251" y1="357.8" x2="361.2" y2="357.8"/>
<line class="st0" x1="251" y1="394.8" x2="291" y2="395"/>
<line class="st0" x1="361.2" y1="395" x2="320" y2="395"/>
<line class="st0" x1="291" y1="395" x2="320" y2="395"/>
<line class="st0" x1="251" y1="357.8" x2="251" y2="394.8"/>
<line class="st0" x1="361.2" y1="357.8" x2="361.2" y2="395"/>
<line class="st0" x1="291" y1="395" x2="291" y2="420"/>
<line class="st0" x1="320" y1="395" x2="320" y2="420"/>
<line class="st0" x1="291" y1="420" x2="300" y2="420"/>
<line class="st0" x1="320" y1="420" x2="312.5" y2="420"/>
<line class="st0" x1="300" y1="420" x2="312.5" y2="420"/>
<line class="st0" x1="300.2" y1="433.5" x2="300" y2="420"/>
<line class="st0" x1="312.5" y1="433.5" x2="300.2" y2="433.5"/>
<line class="st0" x1="312.5" y1="420" x2="312.5" y2="433.5"/>
<line class="st0" x1="245.8" y1="409" x2="245.8" y2="420"/>
<line class="st0" x1="277.2" y1="409" x2="277.5" y2="420"/>
<line class="st0" x1="245.8" y1="420" x2="277.5" y2="420"/>
<line class="st0" x1="245.8" y1="409" x2="277.2" y2="409"/>
<line class="st0" x1="334" y1="409" x2="365.8" y2="409"/>
<line class="st0" x1="334" y1="420" x2="365.8" y2="420"/>
<line class="st0" x1="365.8" y1="409" x2="365.8" y2="420"/>
<line class="st0" x1="334" y1="409" x2="334" y2="420"/>
</svg>
