<?xml version="1.0" encoding="utf-8"?>
<!-- Generator: Adobe Illustrator 19.2.1, SVG Export Plug-In . SVG Version: 6.00 Build 0)  -->
<svg version="1.1" id="Layer_1" xmlns="http://www.w3.org/2000/svg" xmlns:xlink="http://www.w3.org/1999/xlink" x="0px" y="0px"
	 viewBox="0 0 612 792" style="enable-background:new 0 0 612 792;" xml:space="preserve">
<style type="text/css">
	.st0{fill:none;stroke:#000000;stroke-width:2;stroke-miterlimit:10;}
</style>
<line class="st0" x1="106" y1="356" x2="106" y2="454"/>
<line class="st0" x1="122" y1="392" x2="122" y2="454"/>
<line class="st0" x1="437" y1="392" x2="437" y2="454"/>
<line class="st0" x1="479" y1="356" x2="456" y2="356"/>
<line class="st0" x1="456" y1="454" x2="456" y2="356"/>
<line class="st0" x1="437" y1="454" x2="456" y2="454"/>
<line class="st0" x1="106" y1="454" x2="122" y2="454"/>
<line class="st0" x1="66" y1="356" x2="106" y2="356"/>
<line class="st0" x1="122" y1="392" x2="437" y2="392"/>
<line class="st0" x1="66" y1="346" x2="66" y2="356"/>
<line class="st0" x1="479" y1="346" x2="66" y2="346"/>
<line class="st0" x1="479" y1="356" x2="479" y2="346"/>
<line class="st0" x1="122" y1="356" x2="160" y2="356"/>
<line class="st0" x1="180" y1="356" x2="218" y2="356"/>
<line class="st0" x1="232" y1="356" x2="272.5" y2="356"/>
<line class="st0" x1="288" y1="356" x2="327" y2="356"/>
<line class="st0" x1="341" y1="356" x2="378" y2="356"/>
<line class="st0" x1="396" y1="356" x2="437" y2="356"/>
<line class="st0" x1="437" y1="377" x2="437" y2="356"/>
<line class="st0" x1="396" y1="384" x2="396" y2="356"/>
<line class="st0" x1="378" y1="384" x2="378" y2="356"/>
<line class="st0" x1="341" y1="384" x2="341" y2="356"/>
<line class="st0" x1="288" y1="384" x2="288" y2="356"/>
<line class="st0" x1="327" y1="384" x2="327" y2="356"/>
<line class="st0" x1="272.5" y1="384" x2="272.5" y2="356"/>
<line class="st0" x1="232" y1="384" x2="232" y2="356"/>
<line class="st0" x1="180" y1="384" x2="180" y2="356"/>
<line class="st0" x1="218" y1="384" x2="218" y2="356"/>
<line class="st0" x1="160" y1="384" x2="160" y2="356"/>
<line class="st0" x1="122" y1="384" x2="122" y2="356"/>
<line class="st0" x1="160" y1="384" x2="122" y2="384"/>
<line class="st0" x1="218" y1="384" x2="180" y2="384"/>
<line class="st0" x1="272.5" y1="384" x2="232" y2="384"/>
<line class="st0" x1="327" y1="384" x2="288" y2="384"/>
<line class="st0" x1="378" y1="384" x2="341" y2="384"/>
<line class="st0" x1="437" y1="377" x2="396" y2="384"/>
</svg>
